<?xml version="1.0" encoding="UTF-8"?>
<svg id="Layer_1" data-name="Layer 1" xmlns="http://www.w3.org/2000/svg" viewBox="0 0 272.68 272.68">
  <defs>
    <style>
      .cls-1 {
        stroke-width: 2.7px;
      }

      .cls-1, .cls-2 {
        fill: none;
        stroke: #fff;
        stroke-miterlimit: 10;
      }

      .cls-2 {
        stroke-width: 10.46px;
      }

      .cls-3 {
        fill: #1c4e31;
      }

      .cls-3, .cls-4 {
        stroke-width: 0px;
      }

      .cls-4 {
        fill: #fff;
      }
    </style>
  </defs>
  <g id="Frame_3" data-name="Frame 3">
    <circle class="cls-3" cx="136.34" cy="136.34" r="136.34"/>
    <g>
      <g>
        <path class="cls-1" d="M144.14,31.91c52.94,3.95,93.75,46.57,96.84,98.14"/>
        <polygon class="cls-4" points="257.29 127.85 224.48 127.84 240.88 144.25 257.29 127.85"/>
      </g>
      <g>
        <g>
          <path class="cls-1" d="M238.66,159.3c-11.11,50.02-57.53,85.61-110.13,81.68-52.94-3.95-93.75-46.57-96.84-98.14"/>
          <polygon class="cls-4" points="15.39 145.04 48.2 145.05 31.8 128.64 15.39 145.04"/>
        </g>
        <path class="cls-2" d="M32.73,120.5c8.19-53.61,56.43-92.7,111.42-88.59,53.93,4.03,95.27,48.18,96.98,101.03"/>
        <path class="cls-2" d="M239.91,152.71c-8.33,53.45-56.49,92.37-111.37,88.28-54.13-4.04-95.58-48.5-96.99-101.61"/>
      </g>
    </g>
    <path class="cls-4" d="M113.07,165.4c2,12.93,10.22,21.37,25.03,21.37,15.83,0,21.35-7.05,21.35-17.12,0-12.93-7.63-18.25-27.71-24.1-32.19-9.14-43.19-20.98-43.19-41.56,0-26.4,20.62-40.82,47.09-40.82,33.34,0,47.44,17.76,49.04,40.65h-27.81c-1.72-10.5-6.71-18.49-21.48-18.49-12.46,0-18.59,5.93-18.59,15.82,0,10.62,6.97,13.64,26.66,19.5,35.47,10.62,44.78,25.16,44.78,45.58,0,23.22-15.05,43.04-51.43,43.04-30.33,0-50.02-15.66-51.72-43.87h27.99Z"/>
  </g>
</svg>